<svg width="709" height="217" viewBox="0 0 709 217" fill="none" xmlns="http://www.w3.org/2000/svg">
<path d="M316.564 0.00695662C283.677 0.645013 229.953 37.5869 205.595 56.0695C191.822 66.5304 178.737 76.8585 163.689 87.3195C168.262 79.1385 173.285 71.0721 177.751 62.757C181.252 56.3195 194.722 36.7426 199.845 30.9757C200.918 29.7686 201.974 28.6879 202.001 26.9445C202.028 24.7986 200.709 23.6176 198.751 24.2882C183.234 30.0551 173.588 30.589 159.533 32.6007C138.276 35.6853 113.341 49.7531 112.939 75.1007C112.872 78.99 114.06 85.0252 116.689 87.9757C117.333 88.7804 119.893 91.6007 121.126 91.6007C121.838 91.7348 121.885 90.7843 121.845 90.382C121.657 88.9067 117.3 84.0916 117.408 77.7882C117.756 55.7934 137.491 44.1189 154.658 40.632C165.964 38.2179 173.649 37.8312 183.064 35.8195C171.637 55.5343 160.009 75.0916 148.22 94.5382C138.175 111.034 133.245 119.9 124.501 132.507C105.779 159.464 98.7796 169.11 81.5326 185.069C70.5891 194.994 56.241 203.463 41.1263 203.194C29.1232 202.926 19.0428 200.101 11.4388 190.444C9.39994 187.762 8.35854 182.257 8.25134 179.038C7.01744 178.234 5.31579 177.976 3.90759 177.976C1.56088 177.976 0.0549365 179.972 0.00133546 182.788C-0.199765 195.127 22.3489 206.801 42.0638 207.069C65.2252 207.472 81.5423 197.028 96.9388 182.007C116.667 162.829 133.951 136.261 147.845 114.132C152.15 107.292 157.626 98.0382 157.626 98.0382C163.098 111.718 166.882 126.068 172.126 139.882C183.754 170.46 202.43 193.783 237.501 194.319C254.413 194.588 276.117 182.534 286.189 169.257C286.658 168.586 287.238 167.78 287.251 166.976C287.265 165.5 285.694 166.698 285.251 167.101C273.208 179.037 256.352 190.431 238.689 190.163C216.842 189.761 202.686 177.559 191.97 159.319C182.529 143.226 175.942 118.421 170.283 99.9132C169.947 98.8403 169.707 97.6424 169.72 96.5695C169.828 90.4002 178.201 85.4444 182.533 82.2257C198.331 70.4237 214.247 58.3259 230.501 47.1945C251.316 32.9783 293.787 4.57337 319.751 4.97571C323.949 5.10982 333.876 5.77128 333.783 11.5382C333.716 15.5616 329.479 18.5083 329.439 20.7882C329.425 21.727 329.795 23.0695 330.814 23.0695C334.905 23.0695 339.313 18.1085 339.408 12.4757C339.555 3.22182 325.275 0.141066 318.126 0.00695662C317.615 -0.00142538 317.086 -0.00317138 316.564 0.00695662ZM630.158 5.75696C628.186 5.75696 623.827 8.72443 620.501 12.882C616.907 17.4419 614.707 19.8624 611.033 24.2882C609.075 26.7022 607.152 29.3611 604.939 31.507C591.433 44.2478 580.788 53.2439 567.189 65.8507C558.78 73.7635 551.016 77.5044 547.314 89.0382C542.808 89.4405 539.382 90.3963 535.439 92.9445C530.222 96.4314 528.363 103.012 528.376 105.694C526.07 110.523 521.719 116.542 518.876 120.163C515.201 124.857 503.476 136.81 499.158 136.944C495.791 136.944 494.233 135.321 494.22 131.163C494.193 122.714 502.841 109.438 502.814 101.257C502.8 97.5018 500.313 96.1632 497.564 96.1632C488.31 96.1632 478.519 105.676 471.908 112.382C474.496 107.42 475.906 103.407 477.033 98.4445C477.394 96.8351 474.398 94.9445 472.064 94.9445C468 94.9445 467.432 98.7218 465.97 101.538C461.933 106.366 451.606 117.622 446.751 121.913C442.392 125.803 431.74 137.476 426.939 137.476C425.611 137.476 423.858 136.944 423.845 133.726C423.818 127.02 437.036 105.151 441.22 97.507C442.012 96.0317 439.388 94.9445 437.658 94.9445C436.035 94.9445 433.396 95.6215 432.189 96.6945C429.882 98.8403 427.25 105.812 424.783 108.226C417.178 115.468 401.01 127.938 391.501 132.632C397.362 126.463 406.604 116.667 406.564 107.413C406.55 100.439 402.961 97.0916 396.376 97.2257C387.565 97.2257 382.154 101.657 375.501 106.351C378.801 98.438 387.251 81.6632 387.251 81.6632C387.251 80.8585 385.886 80.882 385.376 80.882C378.362 80.882 375.951 84.3507 373.47 90.7882C370.52 98.2986 366.75 107.826 364.658 112.788C361.09 119.494 357.905 126.456 353.72 130.882C350.904 133.832 346.659 139.217 342.689 139.351C339.001 139.351 338.876 135.73 338.876 132.913C338.849 128.085 341.393 123.129 342.626 118.569C343.646 114.68 347.296 107.284 347.283 103.663C347.283 99.7739 344.372 97.2257 340.751 97.2257C328.882 97.2257 322.456 105.688 316.97 110.382C318.942 98.8481 314.284 96.2882 309.845 96.2882C297.788 96.2882 286.147 108.756 280.97 116.132C282.888 111.84 286.359 100.598 286.345 96.0382C286.332 94.9653 285.999 93.6228 284.751 93.757C279.776 94.1593 261.269 100.588 261.283 106.757C261.283 107.964 262.624 108.351 264.126 108.351C265.548 108.351 270.327 103.937 273.908 103.132C274.202 105.814 273.619 108.62 272.533 110.632C262.125 129.542 240.436 145.101 223.376 145.101C217.502 145.101 213.216 141.098 213.189 133.319C213.175 131.04 213.305 129.287 213.72 127.007C220.466 127.141 232.722 119.107 237.47 114.413C242.392 109.585 248.466 102.205 248.439 94.6945C248.425 90.671 243.498 88.1007 239.876 88.1007C220.671 88.1007 202.885 116.025 202.939 135.069C202.979 146.603 210.376 152.632 220.126 152.632C237.575 152.632 261.185 133.839 270.439 119.757C267.904 126.999 263.238 137.185 263.251 140.538C263.265 143.757 265.575 144.163 267.158 144.163C272.415 144.163 273.449 140.694 275.876 134.257C276.587 132.379 277.116 130.5 278.095 128.757C289.978 107.03 300.339 102.476 304.564 102.476C306.079 102.476 307.283 103.659 307.283 106.476C307.309 112.645 295.894 132.512 295.908 138.413C295.921 139.62 297.138 140.819 298.439 140.819C301.134 140.819 305.543 139.736 307.314 135.444C310.318 127.934 311.719 125.521 315.22 118.413C318.385 113.183 328.955 103.007 333.408 103.007C335.406 103.007 336.126 104.067 336.126 105.944C336.14 107.956 333.029 116.146 332.345 118.694C330.601 124.998 327.672 131.435 327.283 138.007C327.015 142.433 329.311 146.976 334.783 146.976C343.111 146.976 352.182 137.484 357.064 131.851C359.237 129.303 358.736 129.567 359.876 128.226C352.956 142.978 354.774 141.892 348.189 156.913C337.098 182.127 327.387 202.775 300.001 215.382C299.518 215.516 299.47 215.801 299.47 216.069C299.47 216.472 300.086 216.476 300.408 216.476C302.352 216.476 305.82 214.999 307.564 214.194C333.689 201.722 344.945 183.194 356.814 157.444C364.861 139.875 365.968 134.654 374.095 118.694C377.757 111.586 381.59 101.382 391.408 101.382C394.572 101.382 396.707 105.284 396.72 108.101C396.733 112.795 392.17 118.948 389.595 122.569C384.405 129.946 378.857 133.848 370.783 138.944C369.482 139.749 369.135 141.349 369.283 142.288C369.51 143.898 372.008 144.163 373.564 144.163C377.587 144.163 379.411 142.166 382.751 140.288C395.72 136.131 409.343 125.265 420.501 116.413C419.187 119.632 413.1 130.239 413.126 136.944C413.14 141.907 417.874 143.757 419.751 143.757C430.105 143.757 442.857 130.491 450.783 122.444C455.302 118.019 460.429 111.986 464.533 107.694C460.979 117.485 452.294 132.784 447.439 142.038C446.567 143.782 448.174 144.976 449.408 144.976C452.975 144.976 457.83 143.494 459.626 140.007C461.504 136.386 467.812 124.721 469.314 122.038C472.828 115.869 480.348 104.601 488.126 104.601C490.017 104.601 491.467 106.495 490.783 108.507C487.269 118.431 484.283 123.788 484.095 133.444C483.988 138.809 486.98 143.507 492.72 143.507C504.053 143.507 516.985 128.088 522.095 121.382C523.825 119.102 527.883 112.649 529.533 110.101C530.391 113.454 532.093 115.745 533.689 117.757C536.183 121.11 544.908 127.555 544.439 131.444C543.849 136.407 538.058 137.476 535.939 137.476C527.932 137.476 525.264 132.226 522.126 132.226C520.343 132.226 517.925 133.049 517.939 135.194C517.939 136.804 518.683 137.734 519.97 138.538C524.316 141.355 528.968 141.882 533.97 141.882C544.096 141.748 551.126 135.193 551.22 126.476C551.301 119.234 548.6 117.491 544.751 112.663C542.485 109.713 537.452 105.418 537.439 101.663C537.425 96.5668 540.769 94.007 544.283 94.007C546.026 94.007 547.566 94.283 549.376 94.8195C551.576 97.77 555.585 99.507 559.314 99.507C561.634 99.507 568.809 98.7192 572.376 93.757L571.97 92.257C570.321 92.9275 568.839 93.3507 567.001 93.3507C562.844 93.4848 555.171 91.0538 555.158 86.2257C555.144 80.9953 560.912 76.1853 564.345 73.1007C578.427 60.3599 586.958 51.6346 602.033 40.1007C585.349 74.5681 568.441 111.851 554.064 147.257C554.064 147.257 557.027 147.538 557.658 147.538C565.288 147.538 568.958 135.599 571.158 130.101C573.652 123.797 578.029 113.864 580.751 107.694C580.443 109.304 580.425 110.907 580.439 112.382C580.492 127.537 592.609 144.172 608.595 144.038C622.959 144.038 639.189 131.957 648.939 122.569C647.906 125.922 646.925 127.8 646.939 132.226C646.966 138.663 652.909 142.569 658.22 142.569C664.886 142.435 673.731 138.687 679.095 134.663C685.815 129.701 708.716 109.039 708.689 101.663C708.689 101.529 708.662 100.601 708.22 100.601C707.55 100.601 706.644 102.323 706.376 102.726C700.972 111.309 686.53 124.852 678.751 130.351C675.653 132.497 668.641 136.007 664.658 136.007C660.97 136.141 658.292 134.245 658.251 129.819C658.13 115.067 678.202 95.4783 678.189 90.382C678.175 88.9067 676.922 88.7791 676.158 88.9132C673.824 89.4497 674.259 89.4705 671.939 90.007C668.68 90.6775 666.958 92.2686 665.845 93.4757C661.594 98.0356 655.195 109.72 650.501 116.694C648.717 119.377 629.528 136.404 616.72 136.538C606.474 136.538 600.053 133.028 594.783 124.444C591.872 119.616 590.483 112.253 590.47 108.632C590.456 107.023 590.668 105.273 592.908 103.663C599.144 98.9692 614.751 90.132 614.751 90.132C614.751 90.132 615.891 89.3207 614.751 88.382C613.612 87.3091 614.05 86.7882 611.314 86.7882C608.699 86.7882 606.937 89.5916 602.283 92.9445C597.951 96.0291 588.673 100.319 581.189 106.757C591.865 84.2257 602.25 61.9574 612.939 39.6945C614.964 35.5369 617.373 31.5082 619.626 27.3507C623.583 20.2427 632.238 13.9353 631.97 7.63196C631.93 6.4249 631.191 5.75696 630.158 5.75696ZM684.814 44.5382C682.682 44.5382 675.033 50.6958 675.033 52.9757C675.033 54.451 675.973 55.5382 677.501 55.5382C680.827 55.5382 687.483 50.3064 687.47 46.8195C687.47 45.4783 686.075 44.5382 684.814 44.5382ZM455.22 57.4132C453.101 57.5473 446.546 63.4458 446.72 65.7257C446.827 67.201 447.848 68.2661 449.376 68.132C452.689 67.8637 458.287 63.0252 458.033 59.5382C457.925 58.1971 456.467 57.4132 455.22 57.4132ZM235.283 95.3507C237.107 95.3507 237.957 96.4197 237.97 98.1632C237.997 106.21 221.9 124.467 214.283 124.601C215.785 116.286 227.853 95.3507 235.283 95.3507Z" fill="#1B458E"/>
</svg>
