<?xml version="1.0" encoding="UTF-8" standalone="no"?>
<!-- Created with Inkscape (http://www.inkscape.org/) -->

<svg
   xmlns:dc="http://purl.org/dc/elements/1.1/"
   xmlns:cc="http://creativecommons.org/ns#"
   xmlns:rdf="http://www.w3.org/1999/02/22-rdf-syntax-ns#"
   xmlns:svg="http://www.w3.org/2000/svg"
   xmlns="http://www.w3.org/2000/svg"
   version="1.1"
   width="300"
   height="90.186722"
   id="svg8746">
  <defs
     id="defs8748" />
  <metadata
     id="metadata8751">
    <rdf:RDF>
      <cc:Work
         rdf:about="">
        <dc:format>image/svg+xml</dc:format>
        <dc:type
           rdf:resource="http://purl.org/dc/dcmitype/StillImage" />
        <dc:title></dc:title>
      </cc:Work>
    </rdf:RDF>
  </metadata>
  <g
     transform="translate(-225,-487.26882)"
     id="layer1">
    <path
       d="m 525,561.09069 -9.97629,0 -10.82099,-15.59573 -19.54356,0 0,15.59573 -8.31802,0 0,-57.59929 9.98073,0 L 525,561.09069 Z m -40.34084,-23.91375 0,-21.41524 13.92857,21.41524 -13.92857,0 z M 237.19028,501.52638 c -4.34351,4.46354 -7.60225,9.98073 -9.69621,15.98695 C 225.88026,522.14582 225,527.01837 225,532.1799 c 0,6.63753 1.39152,13.03498 4.00563,18.77445 2.0495,4.50801 4.88589,8.59811 8.18465,12.16805 l 0,-61.59602 z m 20.58832,30.66241 37.48222,-37.29104 c -7.65116,-4.96592 -16.06254,-7.62893 -25.42087,-7.62893 -4.16123,0 -8.31802,0.64908 -12.06135,1.68939 l 0,86.89241 c 3.53438,1.24926 7.7623,1.60492 11.92353,1.60492 9.35389,0 17.55632,-2.5652 25.50534,-7.62893 L 257.7786,532.18879 Z m 22.66449,-9.98073 30.12449,30.11559 c 2.60077,-5.02816 4.63692,-12.40812 4.64582,-20.66835 0.004,-3.60996 -0.56906,-7.29105 -1.43598,-10.65649 -1.99171,-7.74451 -6.01067,-14.5821 -11.56788,-20.3438 l -21.76645,21.55305 z m 168.65442,9.98073 25.36751,28.9019 -11.43449,0 -24.54061,-28.9019 24.54061,-28.69739 11.43449,0 -25.36751,28.69739 z m -90.25341,0 25.57647,28.9019 -11.64345,0 -24.5406,-28.9019 24.5406,-28.69739 11.64345,0 -25.57647,28.69739 z m 52.50444,6.54417 c -0.61351,0.22691 -1.63159,0.65797 -2.13396,0.65797 l 17.84084,21.69976 -10.60759,0 -23.08239,-28.9019 10.60314,0 c 5.40605,0 9.98518,-4.57468 9.98518,-10.18968 0,-5.615 -4.57913,-10.18969 -9.98518,-10.18969 l -10.60314,0 0,49.28127 -8.11351,0 0,-57.59929 18.71665,0 c 4.78364,0 9.67398,2.05394 12.99941,5.37937 3.32987,3.32988 5.41049,8.10907 5.41049,13.10611 0,4.98814 -2.08062,9.56283 -5.41049,12.89271 -1.66272,1.86722 -3.33432,2.82306 -5.61945,3.86337 z m 19.03231,-35.24156 8.11085,0 0,57.59929 -8.11085,0 0,-57.59929 z m -90.46236,0 8.11041,0 0,57.59929 -8.11041,0 0,-57.59929 z"
       id="path7897"
       style="fill:#00ab4d;fill-opacity:1;fill-rule:evenodd;stroke:none" />
  </g>
</svg>
