<svg width="318" height="126" viewBox="0 0 318 126" fill="none" xmlns="http://www.w3.org/2000/svg">
<path d="M147.64 76.1245L116.013 44.498L79.5576 81.0223V93.2838L88.7435 84.0637L114.191 109.58L104.793 118.944L110.903 125.088L161.799 74.1243V61.9039L147.647 76.1313L147.64 76.1245Z" fill="#000000"/>
<path d="M0 37.8457H56.3275V49.9976H46.9294V89.3097L79.5559 71.1572V104.428H0V92.2073H9.43245V49.9976H0V37.8457ZM237.489 37.8457V49.9976H246.922V92.2073H237.489V104.428H317.114V71.1572L284.446 89.3097V49.9976H293.879V37.8457H237.489Z" fill="#000000"/>
<path d="M111.367 0C122.437 0 131.417 8.9735 131.417 20.05C131.417 31.1264 122.444 40.0999 111.367 40.0999C100.298 40.0999 91.3174 31.1264 91.3174 20.05C91.3174 20.0226 91.3174 20.002 91.3174 19.9746V19.9815C91.3174 8.94611 100.263 0 111.299 0C111.326 0 111.34 0 111.367 0Z" fill="#000000"/>
<path d="M206.11 37.8457C246.313 37.8458 245.813 104.427 206.001 104.428H152.393V92.207H161.9V49.998H152.502V37.8457H206.11ZM195.887 58.5732V83.5889H198.565C209.895 83.5883 209.902 58.5736 198.141 58.5732H195.887Z" fill="#000000"/>
</svg>
