<?xml version="1.0" encoding="UTF-8" standalone="no"?>
<!-- Created with Inkscape (http://www.inkscape.org/) -->

<svg
   xmlns:dc="http://purl.org/dc/elements/1.1/"
   xmlns:cc="http://creativecommons.org/ns#"
   xmlns:rdf="http://www.w3.org/1999/02/22-rdf-syntax-ns#"
   xmlns:svg="http://www.w3.org/2000/svg"
   xmlns="http://www.w3.org/2000/svg"
   xmlns:sodipodi="http://sodipodi.sourceforge.net/DTD/sodipodi-0.dtd"
   xmlns:inkscape="http://www.inkscape.org/namespaces/inkscape"
   width="258.89999"
   height="45.200001"
   id="svg3407"
   version="1.1"
   inkscape:version="0.48.4 r9939"
   sodipodi:docname="Новый документ 4">
  <defs
     id="defs3409">
    <clipPath
       clipPathUnits="userSpaceOnUse"
       id="clipPath3011">
      <path
         inkscape:connector-curvature="0"
         d="m 1.98e-6,1.8311e-4 719.99999802,0 0,539.99999689 -719.99999802,0 0,-539.99999689 z"
         clip-rule="evenodd"
         id="path3013" />
    </clipPath>
    <clipPath
       clipPathUnits="userSpaceOnUse"
       id="clipPath3021">
      <path
         inkscape:connector-curvature="0"
         d="m 0,0 426.95,0 0,76.009 L 0,76.009 0,0 z"
         id="path3023" />
    </clipPath>
  </defs>
  <sodipodi:namedview
     id="base"
     pagecolor="#ffffff"
     bordercolor="#666666"
     borderopacity="1.0"
     inkscape:pageopacity="0.0"
     inkscape:pageshadow="2"
     inkscape:zoom="44"
     inkscape:cx="3.8980638"
     inkscape:cy="24.711343"
     inkscape:current-layer="layer1"
     showgrid="true"
     inkscape:document-units="px"
     inkscape:grid-bbox="true"
     inkscape:window-width="1366"
     inkscape:window-height="715"
     inkscape:window-x="-8"
     inkscape:window-y="-8"
     inkscape:window-maximized="1" />
  <metadata
     id="metadata3412">
    <rdf:RDF>
      <cc:Work
         rdf:about="">
        <dc:format>image/svg+xml</dc:format>
        <dc:type
           rdf:resource="http://purl.org/dc/dcmitype/StillImage" />
        <dc:title></dc:title>
      </cc:Work>
    </rdf:RDF>
  </metadata>
  <g
     id="layer1"
     inkscape:label="Layer 1"
     inkscape:groupmode="layer"
     transform="translate(0,-18.8)">
    <g
       clip-path="url(#clipPath3011)"
       id="g3009"
       transform="matrix(1.25,0,0,-1.25,-605.34642,88.612954)">
      <g
         transform="matrix(2.8906,0,0,0.51215,483.75,19.374)"
         id="g3015">
        <g
           transform="scale(0.16864,0.94725)"
           id="g3017">
          <g
             clip-path="url(#clipPath3021)"
             id="g3019">
            <g
               id="g3025">
              <g
                 id="g3027">
                <g
                   id="g3029" />
              </g>
              <path
                 inkscape:connector-curvature="0"
                 id="path3031"
                 style="fill:#ff0000;fill-opacity:1;fill-rule:evenodd;stroke:none"
                 d="m 180.29,68.578 0.24,-2.398 0.96,-3.596 1.43,-4.315 1.92,-4.555 1.91,-4.315 1.91,-3.596 0.96,-1.438 0.95,-0.959 0.72,-0.72 0.72,-0.239 3.35,-0.24 5.5,0.959 1.19,0.719 0.72,0.959 0.72,1.438 0.24,1.439 0.23,7.671 -0.23,8.87 -0.24,2.158 -0.48,1.918 -0.48,1.918 -0.48,1.438 -0.72,1.439 -0.95,0.959 -0.96,0.719 -1.43,0.239 -2.63,-0.239 -2.87,-0.24 -2.63,-0.479 -2.63,-0.48 -2.63,-0.479 -2.39,-0.72 -0.72,-0.719 -0.72,-0.719 -0.48,-1.199 0,-1.198 z" />
              <path
                 inkscape:connector-curvature="0"
                 id="path3033"
                 style="fill:#ff0000;fill-opacity:1;fill-rule:evenodd;stroke:none"
                 d="m 158.05,60.666 0.24,-1.198 0.96,-1.678 1.2,-1.678 1.19,-1.918 3.11,-3.596 2.15,-2.637 1.91,-2.637 3.11,-3.596 1.44,-1.679 1.67,-1.438 1.44,-0.959 1.19,-0.24 2.63,0.719 2.63,1.199 1.2,0.48 1.19,0.479 0.48,0.48 0.24,0.479 0.24,0.719 0,0.719 -0.24,1.439 -0.48,1.918 -0.71,2.157 -0.72,2.158 -1.91,4.315 -1.2,3.117 -1.43,3.116 -1.68,4.076 -1.19,1.678 -1.2,1.438 -0.72,0.719 -0.71,0.48 -0.72,0.24 -0.72,0 -1.43,0 -1.2,-0.24 -1.91,-0.48 -2.15,-0.719 -2.16,-1.198 -2.15,-0.959 -1.91,-1.199 -0.72,-0.48 -0.48,-0.479 -0.48,-0.479 0,-0.48 0,-2.158 z" />
              <path
                 inkscape:connector-curvature="0"
                 id="path3035"
                 style="fill:#ff0000;fill-opacity:1;fill-rule:evenodd;stroke:none"
                 d="m 218.07,42.447 0.72,0.239 0.72,0.48 0.95,1.199 0.96,1.438 1.91,3.356 1.92,4.076 1.67,4.315 1.43,4.075 0.96,3.357 0.24,2.157 0,2.158 0,0.959 -0.48,0.959 -0.48,0.479 -0.47,0.48 -1.68,0.719 -1.67,0.479 -1.2,0.48 -2.39,0.24 -2.39,0.239 -1.43,0.24 -2.16,0 -2.15,0 -1.67,0 -1.44,-0.24 -0.48,-0.479 -0.47,-0.24 -0.48,-0.479 -0.48,-0.72 -0.72,-1.678 -0.48,-2.397 -0.23,-3.356 -0.24,-5.035 0,-5.034 0,-3.596 0,-2.397 0.24,-1.918 0.71,-1.439 0.72,-1.198 1.2,-0.959 1.19,-0.48 1.91,-0.479 2.16,0 3.58,0 z" />
              <path
                 inkscape:connector-curvature="0"
                 id="path3037"
                 style="fill:#ff0000;fill-opacity:1;fill-rule:evenodd;stroke:none"
                 d="m 142.99,50.358 0.24,-0.959 0.72,-0.959 0.95,-1.438 1.44,-1.439 3.58,-3.116 4.07,-3.596 4.3,-3.117 4.07,-2.877 1.67,-1.198 1.68,-0.72 1.19,-0.479 0.72,-0.24 0.48,0 0.95,0.48 1.68,1.438 0.95,0.959 0.72,0.959 0.48,0.719 0.24,0.719 -0.48,1.439 -0.72,1.678 -1.19,1.918 -1.44,1.918 -3.11,3.596 -2.15,2.637 -2.15,2.637 -3.11,3.596 -1.67,1.678 -1.68,1.438 -0.95,0.48 -0.72,0.24 -0.72,0.239 -0.71,0.24 -0.72,0 -1.2,-0.24 -1.19,-0.719 -1.44,-1.199 -1.43,-1.198 -1.2,-1.439 -1.19,-1.678 -0.72,-1.198 -0.24,-1.199 z" />
              <path
                 inkscape:connector-curvature="0"
                 id="path3039"
                 style="fill:#ff0000;fill-opacity:1;fill-rule:evenodd;stroke:none"
                 d="m 232.9,37.412 0.95,0.24 1.44,1.199 1.67,1.438 1.68,1.918 3.1,3.596 2.16,2.637 2.15,2.877 2.87,3.356 1.19,1.918 0.96,1.918 0.72,1.678 0.24,1.918 0,0.719 0,0.48 -0.48,0.479 -0.48,0.479 -0.72,0.48 -1.67,1.199 -2.15,0.959 -2.15,1.198 -2.4,0.719 -1.67,0.48 -1.43,0.24 -0.48,0 -0.96,0 -0.96,-0.24 -0.71,-0.48 -0.96,-0.479 -1.19,-1.199 -1.2,-1.678 -1.67,-3.836 -1.44,-3.596 -1.43,-3.356 -1.68,-4.315 -0.95,-2.158 -0.72,-2.157 -0.48,-1.918 -0.24,-1.439 0.24,-0.958 0.72,-1.199 1.19,-0.719 1.44,-0.959 1.43,-0.48 1.44,-0.719 1.43,-0.24 1.2,0 z" />
              <path
                 inkscape:connector-curvature="0"
                 id="path3041"
                 style="fill:#ff0000;fill-opacity:1;fill-rule:evenodd;stroke:none"
                 d="m 137.73,38.131 0,-0.958 0.24,-0.959 0.48,-0.72 0.48,-0.719 1.43,-1.438 1.67,-1.439 3.83,-2.157 3.35,-1.678 3.35,-1.678 3.58,-2.158 1.91,-0.719 2.16,-0.959 1.91,-0.48 1.91,0 0.48,0.48 0.48,0.959 0.48,1.198 0,0.72 0,1.438 -0.24,0.719 -0.72,0.719 -0.96,1.199 -1.43,1.199 -3.59,3.116 -4.06,3.357 -4.31,3.116 -4.06,2.637 -1.91,1.199 -1.44,0.719 -1.43,0.48 -0.72,0.239 -0.72,-0.239 -0.72,-0.48 -0.47,-0.719 -0.24,-0.959 -0.72,-2.158 0,-1.918 0,-0.959 z" />
              <path
                 inkscape:connector-curvature="0"
                 id="path3043"
                 style="fill:#ff0000;fill-opacity:1;fill-rule:evenodd;stroke:none"
                 d="m 242.46,30.22 1.2,0.24 1.67,0.959 1.91,1.199 2.16,1.438 4.06,2.877 2.63,2.157 2.87,2.158 3.59,3.117 1.67,1.438 1.68,1.678 0.47,0.959 0.48,0.719 0.24,0.719 0,0.72 0,0.239 -0.24,0.959 -0.72,1.199 -1.19,1.438 -1.44,1.439 -1.43,1.198 -1.44,1.199 -1.19,0.719 -0.96,0.24 -0.71,0 -0.72,-0.24 -0.72,-0.239 -0.96,-0.24 -0.71,-0.48 -1.68,-1.438 -1.67,-1.678 -2.87,-3.356 -2.39,-2.877 -2.15,-2.398 -3.11,-3.835 -1.44,-1.918 -1.19,-1.918 -0.72,-1.678 -0.24,-1.439 0,-0.719 0.48,-0.719 0.72,-0.959 0.95,-0.959 1.68,-1.438 0.95,-0.48 0.48,0 z" />
              <path
                 inkscape:connector-curvature="0"
                 id="path3045"
                 style="fill:#ff0000;fill-opacity:1;fill-rule:evenodd;stroke:none"
                 d="m 246.77,22.069 1.91,0.24 2.15,0.719 2.39,0.959 2.63,1.439 5.02,2.637 3.83,2.157 2.15,0.959 2.15,1.439 0.96,0.719 0.96,0.719 0.71,0.959 0.48,0.959 0.24,0.959 0,1.438 0,1.678 -0.24,1.679 -0.24,1.438 -0.71,1.199 -0.24,0.479 -0.48,0.48 -0.24,0.239 -0.48,0 -0.72,0 -0.95,-0.239 -1.2,-0.48 -1.43,-0.719 -1.68,-1.199 -4.06,-2.877 -4.31,-3.116 -4.06,-3.356 -3.59,-3.117 -1.43,-1.199 -1.2,-1.198 -0.71,-0.959 -0.24,-0.48 0.24,-1.198 0.47,-1.439 0.24,-0.959 0.48,-0.479 0.24,-0.48 0.48,0 0.48,0 z" />
              <path
                 inkscape:connector-curvature="0"
                 id="path3047"
                 style="fill:#ff0000;fill-opacity:1;fill-rule:evenodd;stroke:none"
                 d="m 155.42,23.747 -2.86,1.439 -4.79,2.397 -4.54,2.398 -2.39,0.958 -2.39,0 0,-1.198 0.24,-0.959 0.24,-1.199 0.47,-0.959 0.96,-1.678 1.44,-1.678 1.67,-1.438 1.91,-1.439 1.68,-0.959 1.91,-0.719 3.35,-1.438 5.26,-1.678 5.5,-1.918 2.87,-0.72 0.95,0 -0.72,2.158 -0.95,1.678 -1.2,1.678 -1.43,1.199 -3.35,2.158 -3.83,1.917 z" />
              <path
                 inkscape:connector-curvature="0"
                 id="path3049"
                 style="fill:#ff0000;fill-opacity:1;fill-rule:evenodd;stroke:none"
                 d="m 243.18,12.959 1.67,0.24 1.92,0.48 2.39,0.719 2.63,0.959 5.26,1.678 3.58,1.438 2.16,0.72 1.91,0.958 1.67,1.199 1.44,1.439 1.19,1.198 1.2,2.158 1.2,2.157 0.47,1.918 -0.24,0.24 -0.23,0.24 -0.24,0.239 -0.48,0 -0.24,0 -1.44,-0.239 -1.91,-0.719 -2.15,-0.959 -2.15,-1.199 -4.79,-2.158 -3.1,-1.678 -3.83,-1.918 -3.59,-2.157 -1.43,-1.439 -1.2,-1.438 -0.95,-1.918 -0.72,-2.158 z" />
              <path
                 inkscape:connector-curvature="0"
                 id="path3051"
                 style="fill:#ff0000;fill-opacity:1;fill-rule:evenodd;stroke:none"
                 d="m 146.82,17.754 0.95,-1.199 1.2,-0.958 1.43,-1.439 1.92,-1.199 3.58,-2.157 2.87,-1.4385 3.11,-0.7192 4.78,-1.1987 5.02,-1.1987 3.11,-0.4794 -0.71,0.9589 -1.44,0.9589 -1.43,1.1987 -1.92,0.9589 -3.58,1.9181 -2.87,1.198 -3.11,1.199 -4.31,1.439 -4.54,1.438 -2.87,0.719 -1.19,0 z" />
              <path
                 inkscape:connector-curvature="0"
                 id="path3053"
                 style="fill:#ff0000;fill-opacity:1;fill-rule:evenodd;stroke:none"
                 d="m 235.29,5.7675 3.11,0.4794 5.02,1.1987 5.02,1.1987 2.87,0.9589 2.87,1.1988 3.82,2.157 1.68,1.439 1.67,1.199 0.96,0.958 0.48,1.199 -2.87,-0.479 -3.59,-0.959 -4.3,-1.439 -4.31,-1.678 -4.3,-1.918 -3.59,-1.9175 -1.67,-0.959 -1.2,-0.9589 -0.95,-0.9589 -0.72,-0.7192 z" />
              <path
                 inkscape:connector-curvature="0"
                 id="path3055"
                 style="fill:#ff0000;fill-opacity:1;fill-rule:evenodd;stroke:none"
                 d="m 163.08,7.6853 1.19,-0.9589 2.63,-0.9589 3.35,-1.1987 4.06,-1.1987 4.07,-0.9589 3.83,-0.7192 3.1,-0.71921 2.4,-0.23973 -1.44,0.71924 -2.63,0.9589 -3.35,0.9589 -4.06,1.1987 -8.13,2.1576 -5.02,0.9589 z" />
              <path
                 inkscape:connector-curvature="0"
                 id="path3057"
                 style="fill:#ff0000;fill-opacity:1;fill-rule:evenodd;stroke:none"
                 d="m 222.38,0.73306 5.74,0.95894 7.89,1.9179 3.82,0.9589 3.35,0.9589 2.63,1.1987 1.2,0.9589 -5.27,-0.9589 -7.89,-2.1576 -3.82,-0.9589 -3.59,-1.1987 -2.63,-0.9589 -1.43,-0.71924 z" />
              <path
                 inkscape:connector-curvature="0"
                 id="path3059"
                 style="fill:#ff0000;fill-opacity:1;fill-rule:evenodd;stroke:none"
                 d="m 320.41,28.063 6.22,0 0,11.507 12.43,0 0,-2.397 -5.26,0 -1.91,0 -1.19,-0.48 -0.48,-0.479 -0.48,-0.72 -0.24,-0.719 0,-0.959 9.56,0 1.92,0.24 2.15,0.479 0.96,0.24 0.71,0.48 0.24,0.719 0.24,0.719 0,3.356 0,0.959 -0.48,0.48 -0.71,0.479 -0.72,0.48 -1.91,0.479 -1.92,0 -19.13,0 0,-14.863 z" />
              <path
                 inkscape:connector-curvature="0"
                 id="path3061"
                 style="fill:#ff0000;fill-opacity:1;fill-rule:evenodd;stroke:none"
                 d="m 346.72,39.57 20.8,0 0.72,0 0.71,0.24 0.72,0.239 0.72,0.48 0.48,0.479 0.48,0.48 0.23,0.719 0.24,0.719 -20.8,0 -0.72,0 -0.95,-0.24 -0.48,-0.239 -0.72,-0.48 -0.96,-0.959 -0.47,-1.438 z" />
              <path
                 inkscape:connector-curvature="0"
                 id="path3063"
                 style="fill:#ff0000;fill-opacity:1;fill-rule:evenodd;stroke:none"
                 d="m 40.41,28.063 6.217,0 0,5.753 12.434,0 0,-5.753 5.978,0 0,14.384 -5.978,0 0,-5.754 -12.912,0 0,5.754 -5.739,0 0,-14.384 z" />
              <path
                 inkscape:connector-curvature="0"
                 id="path3065"
                 style="fill:#ff0000;fill-opacity:1;fill-rule:evenodd;stroke:none"
                 d="m 40.41,28.063 0,14.384 5.739,0 0,-5.754 12.912,0 0,5.754 5.978,0 0,-14.384 0.478,14.863 -6.934,0 0,-5.753 -11.956,0 0,5.753 -6.695,0 0.478,-14.863 z" />
              <path
                 inkscape:connector-curvature="0"
                 id="path3067"
                 style="fill:#ff0000;fill-opacity:1;fill-rule:evenodd;stroke:none"
                 d="m 14.586,36.214 -1.913,1.438 -2.63,2.158 -1.1958,0.959 -1.1955,0.959 -0.9565,0.479 -0.7173,0.24 -4.7823,0 0,-14.384 6.217,0 0,8.63 1.4346,-1.199 2.1518,-1.917 2.152,-1.918 1.435,-0.72 1.435,0.959 2.152,1.918 2.391,1.918 1.674,1.439 0,-9.11 6.217,0 0,14.863 -3.109,0 L 23.194,42.447 21.52,41.728 20.086,40.769 18.89,39.81 17.694,38.611 16.499,37.412 14.586,36.214 z" />
              <path
                 inkscape:connector-curvature="0"
                 id="path3069"
                 style="fill:#ff0000;fill-opacity:1;fill-rule:evenodd;stroke:none"
                 d="m 346.72,33.816 20.8,0 0.72,0 0.71,0.24 0.72,0.24 0.72,0.479 0.48,0.48 0.48,0.479 0.23,0.719 0.24,0.72 -17.93,0 -2.63,0 -1.91,-0.48 -0.96,-0.479 -0.72,-0.48 -0.48,-0.719 -0.47,-1.199 z" />
              <path
                 inkscape:connector-curvature="0"
                 id="path3071"
                 style="fill:#ff0000;fill-opacity:1;fill-rule:evenodd;stroke:none"
                 d="m 373.26,28.063 6.21,0 0,5.753 12.44,0 0,-5.753 6.22,0 0,14.863 -6.22,0 0,-5.753 -12.44,0 0,5.753 -6.21,0 0,-14.863 z" />
              <path
                 inkscape:connector-curvature="0"
                 id="path3073"
                 style="fill:#ff0000;fill-opacity:1;fill-rule:evenodd;stroke:none"
                 d="m 406.73,39.57 12.92,0 0,-2.877 -12.92,0 0,2.877 z m -6.21,-11.507 6.69,0 0,5.753 12.44,0 0,-2.877 0.24,-0.719 0.23,-0.479 0.48,-0.48 0.72,-0.479 1.67,-0.48 1.44,-0.239 1.43,0 0,11.027 0,1.199 -0.48,0.719 -0.47,0.72 -0.72,0.479 -2.15,0.719 -2.39,0 -19.13,0 0,-14.863 z" />
              <path
                 inkscape:connector-curvature="0"
                 id="path3075"
                 style="fill:#ff0000;fill-opacity:1;fill-rule:evenodd;stroke:none"
                 d="m 299.13,39.57 12.68,0 0,-2.397 -12.68,0 0,2.397 z m -6.21,0.479 0,-11.986 1.91,0 0.72,0 0.95,0.239 0.72,0.48 0.48,0.24 0.72,0.479 0.47,0.719 0.24,0.48 0,0.719 0,2.397 12.68,0 0,-5.753 6.21,0 0,14.863 -20.8,0 -1.2,-0.24 -1.43,-0.479 -0.72,-0.479 -0.48,-0.48 -0.24,-0.479 -0.23,-0.72 z" />
              <path
                 inkscape:connector-curvature="0"
                 id="path3077"
                 style="fill:#ff0000;fill-opacity:1;fill-rule:evenodd;stroke:none"
                 d="m 95.168,28.063 6.212,0 0,6.712 3.83,-2.877 3.35,-1.917 1.91,-0.72 2.15,-0.719 2.87,-0.24 3.35,0 -10.76,7.672 8.13,6.952 -6.7,0 -8.13,-6.233 0,6.233 -6.212,0 0,-14.863 z" />
              <path
                 inkscape:connector-curvature="0"
                 id="path3079"
                 style="fill:#ff0000;fill-opacity:1;fill-rule:evenodd;stroke:none"
                 d="m 31.324,28.063 6.217,0 0,14.863 -6.217,0 0,-14.863 z" />
              <path
                 inkscape:connector-curvature="0"
                 id="path3081"
                 style="fill:#ff0000;fill-opacity:1;fill-rule:evenodd;stroke:none"
                 d="m 346.72,28.063 19.84,0 0.96,0 0.96,0.239 0.71,0.24 0.72,0.24 0.72,0.479 0.48,0.48 0.24,0.719 0.47,0.959 -17.93,0 -2.39,0 -2.39,-0.48 -0.72,-0.479 -0.96,-0.479 -0.47,-0.959 -0.24,-0.959 z" />
              <path
                 inkscape:connector-curvature="0"
                 id="path3083"
                 style="fill:#ff0000;fill-opacity:1;fill-rule:evenodd;stroke:none"
                 d="m 67.909,39.09 0,-8.151 0,-0.479 0.239,-0.719 0.717,-0.48 0.478,-0.479 1.435,-0.48 1.435,-0.239 16.738,0 1.434,0.239 1.196,0.72 0.478,0.239 0.478,0.48 0.239,0.719 0,0.479 0,2.877 -1.434,0 -1.674,0 -1.674,-0.479 -0.478,-0.48 -0.478,-0.479 -0.239,-0.719 -0.239,-0.72 -12.434,0 0,8.631 12.434,0 0,-2.877 1.912,0.24 1.913,0.479 0.957,0.48 0.717,0.479 0.478,0.48 0.239,0.719 0,0.479 0,0.72 -0.478,0.719 -0.478,0.479 -0.717,0.24 -1.435,0.719 -1.674,0 -13.868,0 -2.392,0 -1.913,-0.719 -0.956,-0.479 -0.478,-0.72 -0.478,-0.719 0,-1.199 z" />
            </g>
          </g>
        </g>
      </g>
    </g>
  </g>
</svg>
